<?xml version="1.0" encoding="utf-8"?>
<!-- Generator: Adobe Illustrator 19.0.0, SVG Export Plug-In . SVG Version: 6.00 Build 0)  -->
<svg version="1.1" id="Layer_1" xmlns="http://www.w3.org/2000/svg" xmlns:xlink="http://www.w3.org/1999/xlink" x="0px" y="0px"
	 viewBox="-252 338 106.3 118" style="enable-background:new -252 338 106.3 118;" xml:space="preserve">
<style type="text/css">
	.st0{display:none;}
	.st1{display:inline;}
	.st2{fill:#1D87C9;}
</style>
<g class="st0">
	<path class="st1" d="M-434.4,694.1c-6-6-14.1-9.4-22.6-9.4s-16.6,3.4-22.6,9.4c-0.8,0.8-0.8,2,0,2.8c0.8,0.8,2,0.8,2.8,0
		c5.3-5.3,12.3-8.2,19.8-8.2s14.5,2.9,19.8,8.2c0.8,0.8,2,0.8,2.8,0c0.4-0.4,0.6-0.9,0.6-1.4S-434,694.5-434.4,694.1z"/>
	<path class="st1" d="M-457.2,694.7c-5.7,0-11.2,2.3-15.4,6.5c-0.8,0.8-0.8,2,0,2.8c0.8,0.8,2,0.8,2.8,0c3.4-3.4,7.9-5.3,12.7-5.3
		c4.8,0,9.3,1.9,12.7,5.3c0.8,0.8,2,0.8,2.8,0c0.4-0.4,0.6-0.9,0.6-1.4s-0.2-1-0.6-1.4C-445.8,697-451.3,694.7-457.2,694.7z
		 M-462.7,711.1c3.1-3.1,8.2-3.1,11.3,0c0.8,0.8,2,0.8,2.8,0c0.4-0.4,0.6-0.9,0.6-1.4s-0.2-1-0.6-1.4c-4.7-4.7-12.3-4.7-17,0
		c-0.7,0.7-0.7,2,0.1,2.8C-464.7,711.9-463.5,711.9-462.7,711.1z M-444.1,718.6h-25.8c-1.7,0-3,1.3-3,3v46.1c0,1.7,1.3,3,3,3h25.7
		c1.7,0,3-1.3,3-3v-46.1C-441.1,719.9-442.5,718.6-444.1,718.6z M-445.1,766.7h-23.8v-44.1h23.7L-445.1,766.7L-445.1,766.7z"/>
	<circle class="st1" cx="-457" cy="761.4" r="2"/>
	<path class="st1" d="M-459.3,730.1h4.6c1.1,0,2-0.9,2-2c0-1.1-0.9-2-2-2h-4.6c-1.1,0-2,0.9-2,2
		C-461.3,729.2-460.4,730.1-459.3,730.1z"/>
</g>
<g>
	<path class="st2" d="M-176,418h-17.5c-1,0-1.8-0.8-1.8-1.8s0.8-1.8,1.8-1.8h17.5c8.7,0,15.8-7.1,15.8-15.8s-7.1-15.8-15.8-15.8
		c-0.9,0-1.9-0.6-2-1.5c-1.6-11.1-11.3-19.5-22.5-19.5c-12.5,0-22.8,10.2-22.8,22.8c0,1,0.1,2,0.3,3.3c0.1,0.5-0.1,1-0.4,1.4
		c-0.3,0.4-0.8,0.5-1.3,0.6c-0.1,0-0.3,0-0.4,0c-6.6,0-12.1,5.5-12.1,12.3s5.5,12.2,12.2,12.2h17.5c1,0,1.8,0.8,1.8,1.8
		s-0.8,1.8-1.8,1.8H-225c-8.7,0-15.8-7.1-15.8-15.8c0-8.1,6.2-14.8,14.1-15.7c-0.1-0.6-0.1-1.2-0.1-1.8c0-14.5,11.8-26.2,26.2-26.2
		c12.5,0,23.3,9,25.7,21.1c10.2,0.7,18,9.1,18,19.2C-156.8,409.4-165.4,418-176,418z"/>
	<path class="st2" d="M-200.6,435.5c-1,0-1.8-0.8-1.8-1.8v-24.4c0-6.8,5.5-12.2,12.2-12.2h2.8l-4-4c-0.7-0.7-0.7-1.8,0-2.5
		s1.8-0.7,2.5,0l7,7c0.5,0.5,0.7,1.3,0.4,1.9c-0.3,0.7-0.9,1.1-1.6,1.1h-7c-4.8,0-8.8,3.9-8.8,8.8v24.5
		C-198.8,434.7-199.6,435.5-200.6,435.5z"/>
	<path class="st2" d="M-190,407.5c-0.4,0-0.9-0.2-1.2-0.5c-0.7-0.7-0.7-1.8,0-2.5l7-7c0.7-0.7,1.8-0.7,2.5,0s0.7,1.8,0,2.5l-7,7
		C-189.2,407.4-189.6,407.5-190,407.5z"/>
</g>
</svg>
