<?xml version="1.0" encoding="utf-8"?>
<!-- Generator: Adobe Illustrator 19.0.0, SVG Export Plug-In . SVG Version: 6.00 Build 0)  -->
<svg version="1.1" id="Layer_1" xmlns="http://www.w3.org/2000/svg" xmlns:xlink="http://www.w3.org/1999/xlink" x="0px" y="0px"
	 viewBox="-258 334 106.3 118" enable-background="new -258 334 106.3 118" xml:space="preserve">
<g display="none">
	<path display="inline" d="M-182.4,356.1c-6-6-14.1-9.4-22.6-9.4s-16.6,3.4-22.6,9.4c-0.8,0.8-0.8,2,0,2.8c0.8,0.8,2,0.8,2.8,0
		c5.3-5.3,12.3-8.2,19.8-8.2s14.5,2.9,19.8,8.2c0.8,0.8,2,0.8,2.8,0c0.4-0.4,0.6-0.9,0.6-1.4S-182,356.5-182.4,356.1z"/>
	<path display="inline" d="M-205.2,356.7c-5.7,0-11.2,2.3-15.4,6.5c-0.8,0.8-0.8,2,0,2.8c0.8,0.8,2,0.8,2.8,0
		c3.4-3.4,7.9-5.3,12.7-5.3c4.8,0,9.3,1.9,12.7,5.3c0.8,0.8,2,0.8,2.8,0c0.4-0.4,0.6-0.9,0.6-1.4s-0.2-1-0.6-1.4
		C-193.8,359-199.3,356.7-205.2,356.7z M-210.7,373.1c3.1-3.1,8.2-3.1,11.3,0c0.8,0.8,2,0.8,2.8,0c0.4-0.4,0.6-0.9,0.6-1.4
		s-0.2-1-0.6-1.4c-4.7-4.7-12.3-4.7-17,0c-0.7,0.7-0.7,2,0.1,2.8C-212.7,373.9-211.5,373.9-210.7,373.1z M-192.1,380.6h-25.8
		c-1.7,0-3,1.3-3,3v46.1c0,1.7,1.3,3,3,3h25.7c1.7,0,3-1.3,3-3v-46.1C-189.1,381.9-190.5,380.6-192.1,380.6z M-193.1,428.7h-23.8
		v-44.1h23.7L-193.1,428.7L-193.1,428.7z"/>
	<circle display="inline" cx="-205" cy="423.4" r="2"/>
	<path display="inline" d="M-207.3,392.1h4.6c1.1,0,2-0.9,2-2c0-1.1-0.9-2-2-2h-4.6c-1.1,0-2,0.9-2,2
		C-209.3,391.2-208.4,392.1-207.3,392.1z"/>
</g>
<g display="none">
	<path display="inline" d="M-181.2,414.7h-17.5c-1,0-1.8-0.8-1.8-1.8s0.8-1.8,1.8-1.8h17.5c8.7,0,15.8-7.1,15.8-15.8
		s-7.1-15.8-15.8-15.8c-0.9,0-1.9-0.6-2-1.5c-1.6-11.1-11.3-19.5-22.5-19.5c-12.5,0-22.8,10.2-22.8,22.8c0,1,0.1,2,0.3,3.3
		c0.1,0.5-0.1,1-0.4,1.4c-0.3,0.4-0.8,0.5-1.3,0.6c-0.1,0-0.3,0-0.4,0c-6.6,0-12.1,5.5-12.1,12.3s5.5,12.2,12.2,12.2h17.5
		c1,0,1.8,0.8,1.8,1.8s-0.8,1.8-1.8,1.8h-17.5c-8.7,0-15.8-7.1-15.8-15.8c0-8.1,6.2-14.8,14.1-15.7c-0.1-0.6-0.1-1.2-0.1-1.8
		c0-14.5,11.8-26.2,26.2-26.2c12.5,0,23.3,9,25.7,21.1c10.2,0.7,18,9.1,18,19.2C-162,406.1-170.6,414.7-181.2,414.7z"/>
	<path display="inline" d="M-205.8,432.2c-1,0-1.8-0.8-1.8-1.8V406c0-6.8,5.5-12.2,12.2-12.2h2.8l-4-4c-0.7-0.7-0.7-1.8,0-2.5
		c0.7-0.7,1.8-0.7,2.5,0l7,7c0.5,0.5,0.7,1.3,0.4,1.9c-0.3,0.7-0.9,1.1-1.6,1.1h-7c-4.8,0-8.8,3.9-8.8,8.8v24.5
		C-204,431.4-204.8,432.2-205.8,432.2z"/>
	<path display="inline" d="M-195.2,404.2c-0.4,0-0.9-0.2-1.2-0.5c-0.7-0.7-0.7-1.8,0-2.5l7-7c0.7-0.7,1.8-0.7,2.5,0
		c0.7,0.7,0.7,1.8,0,2.5l-7,7C-194.4,404.1-194.8,404.2-195.2,404.2z"/>
</g>
<g>
	<path d="M-187.7,428C-187.7,428-187.8,428-187.7,428c-0.9,0-1.6-0.7-1.7-1.5l-8.6-66.9l-9.8,46.2c-0.2,0.7-0.8,1.3-1.5,1.3
		c-0.7,0.1-1.4-0.4-1.7-1.2l-9.4-29.3l-7.1,15.9c-0.3,0.6-0.9,1-1.5,1h-13.3c-0.9,0-1.7-0.7-1.7-1.7c0-0.9,0.7-1.7,1.7-1.7h12.2
		l8.4-18.9c0.3-0.6,1-1,1.6-1c0.7,0,1.3,0.5,1.5,1.2l8.8,27.5l10.5-49.7c0.2-0.8,0.8-1.4,1.7-1.3c0.8,0,1.5,0.6,1.6,1.5l8.7,67.7
		l6.3-26c0.2-0.7,0.8-1.3,1.6-1.3h13.6c0.9,0,1.7,0.7,1.7,1.7s-0.7,1.7-1.7,1.7H-178l-8.1,33.5C-186.3,427.5-187,428-187.7,428z"/>
</g>
</svg>
