<?xml version="1.0" encoding="utf-8"?>
<!-- Generator: Adobe Illustrator 19.0.0, SVG Export Plug-In . SVG Version: 6.00 Build 0)  -->
<svg version="1.1" id="Layer_1" xmlns="http://www.w3.org/2000/svg" xmlns:xlink="http://www.w3.org/1999/xlink" x="0px" y="0px"
	 viewBox="-252 338 106.3 118" style="enable-background:new -252 338 106.3 118;" xml:space="preserve">
<style type="text/css">
	.st0{fill:#1D87C9;}
</style>
<g>
	<path class="st0" d="M-176.2,358.7c-6-6-14.1-9.4-22.6-9.4s-16.6,3.4-22.6,9.4c-0.8,0.8-0.8,2,0,2.8s2,0.8,2.8,0
		c5.3-5.3,12.3-8.2,19.8-8.2s14.5,2.9,19.8,8.2c0.8,0.8,2,0.8,2.8,0c0.4-0.4,0.6-0.9,0.6-1.4S-175.9,359.1-176.2,358.7z"/>
	<path class="st0" d="M-199.1,359.3c-5.7,0-11.2,2.3-15.4,6.5c-0.8,0.8-0.8,2,0,2.8s2,0.8,2.8,0c3.4-3.4,7.9-5.3,12.7-5.3
		s9.3,1.9,12.7,5.3c0.8,0.8,2,0.8,2.8,0c0.4-0.4,0.6-0.9,0.6-1.4s-0.2-1-0.6-1.4C-187.7,361.6-193.2,359.3-199.1,359.3z
		 M-204.6,375.7c3.1-3.1,8.2-3.1,11.3,0c0.8,0.8,2,0.8,2.8,0c0.4-0.4,0.6-0.9,0.6-1.4s-0.2-1-0.6-1.4c-4.7-4.7-12.3-4.7-17,0
		c-0.7,0.7-0.7,2,0.1,2.8C-206.6,376.5-205.4,376.5-204.6,375.7z M-186,383.2h-25.8c-1.7,0-3,1.3-3,3v46.1c0,1.7,1.3,3,3,3h25.7
		c1.7,0,3-1.3,3-3v-46.1C-183,384.5-184.4,383.2-186,383.2z M-187,431.3h-23.8v-44.1h23.7L-187,431.3L-187,431.3z"/>
	<circle class="st0" cx="-198.9" cy="426" r="2"/>
	<path class="st0" d="M-201.2,394.7h4.6c1.1,0,2-0.9,2-2s-0.9-2-2-2h-4.6c-1.1,0-2,0.9-2,2S-202.2,394.7-201.2,394.7z"/>
</g>
</svg>
