<?xml version="1.0" encoding="utf-8"?>
<!-- Generator: Adobe Illustrator 19.0.0, SVG Export Plug-In . SVG Version: 6.00 Build 0)  -->
<svg version="1.1" id="Layer_1" xmlns="http://www.w3.org/2000/svg" xmlns:xlink="http://www.w3.org/1999/xlink" x="0px" y="0px"
	 viewBox="-258 334 106.3 118" enable-background="new -258 334 106.3 118" xml:space="preserve">
<g>
	<path d="M-182.4,356.1c-6-6-14.1-9.4-22.6-9.4s-16.6,3.4-22.6,9.4c-0.8,0.8-0.8,2,0,2.8c0.8,0.8,2,0.8,2.8,0
		c5.3-5.3,12.3-8.2,19.8-8.2s14.5,2.9,19.8,8.2c0.8,0.8,2,0.8,2.8,0c0.4-0.4,0.6-0.9,0.6-1.4S-182,356.5-182.4,356.1z"/>
	<path d="M-205.2,356.7c-5.7,0-11.2,2.3-15.4,6.5c-0.8,0.8-0.8,2,0,2.8c0.8,0.8,2,0.8,2.8,0c3.4-3.4,7.9-5.3,12.7-5.3
		c4.8,0,9.3,1.9,12.7,5.3c0.8,0.8,2,0.8,2.8,0c0.4-0.4,0.6-0.9,0.6-1.4s-0.2-1-0.6-1.4C-193.8,359-199.3,356.7-205.2,356.7z
		 M-210.7,373.1c3.1-3.1,8.2-3.1,11.3,0c0.8,0.8,2,0.8,2.8,0c0.4-0.4,0.6-0.9,0.6-1.4s-0.2-1-0.6-1.4c-4.7-4.7-12.3-4.7-17,0
		c-0.7,0.7-0.7,2,0.1,2.8C-212.7,373.9-211.5,373.9-210.7,373.1z M-192.1,380.6h-25.8c-1.7,0-3,1.3-3,3v46.1c0,1.7,1.3,3,3,3h25.7
		c1.7,0,3-1.3,3-3v-46.1C-189.1,381.9-190.5,380.6-192.1,380.6z M-193.1,428.7h-23.8v-44.1h23.7L-193.1,428.7L-193.1,428.7z"/>
	<circle cx="-205" cy="423.4" r="2"/>
	<path d="M-207.3,392.1h4.6c1.1,0,2-0.9,2-2c0-1.1-0.9-2-2-2h-4.6c-1.1,0-2,0.9-2,2C-209.3,391.2-208.4,392.1-207.3,392.1z"/>
</g>
</svg>
