<?xml version="1.0" encoding="utf-8"?>
<!-- Generator: Adobe Illustrator 19.0.0, SVG Export Plug-In . SVG Version: 6.00 Build 0)  -->
<svg version="1.1" id="Layer_1" xmlns="http://www.w3.org/2000/svg" xmlns:xlink="http://www.w3.org/1999/xlink" x="0px" y="0px"
	 viewBox="0 0 250.3 48.3" enable-background="new 0 0 250.3 48.3" xml:space="preserve">
<g id="XMLID_2_">
	<g id="XMLID_7_">
		<path id="XMLID_18_" fill="#1F87C9" d="M3.5,36.9c3.3,3.4,7.9,5.8,12.7,5.8c6,0,9.6-3,9.6-7.5c0-4.7-3.4-6.2-7.7-8.1l-6.6-2.9
			C7.2,22.3,2.2,19,2.2,12.2C2.2,5.2,8.4,0,16.7,0C22.2,0,27,2.3,30.3,5.7l-3.1,3.8c-2.8-2.7-6.3-4.4-10.5-4.4
			c-5.2,0-8.6,2.6-8.6,6.7c0,4.4,4.1,6.1,7.7,7.7l6.6,2.8c5.3,2.3,9.5,5.5,9.5,12.3c0,7.3-6,13.1-15.7,13.1C9.6,47.8,4,45.1,0,40.9
			L3.5,36.9z"/>
		<path id="XMLID_16_" fill="#1F87C9" d="M50.2,5.8h-14V0.8h33.8v4.9h-14v41.2h-5.8V5.8z"/>
		<path id="XMLID_14_" fill="#1F87C9" d="M75.9,0.8h26.5v4.9H81.8v14.5h17.4v5H81.8v16.7h20.6v5H75.9V0.8z"/>
		<path id="XMLID_12_" fill="#1F87C9" d="M122.2,5.8h-14V0.8H142v4.9h-14v41.2h-5.8V5.8z"/>
		<path id="XMLID_10_" fill="#1F87C9" d="M147.9,0.8h5.9v19.3h21.4V0.8h5.8v46.1h-5.8V25.2h-21.4v21.7h-5.9V0.8z"/>
		<path id="XMLID_8_" fill="#969696" d="M188.9,1h8.1v45.9h-8.1V1z"/>
	</g>
	<g id="XMLID_3_">
		<path id="XMLID_4_" fill="#969696" d="M226.5,47.8c-13.2,0-23.9-10.7-23.9-23.9c0-13.2,10.7-23.9,23.9-23.9s23.9,10.7,23.9,23.9
			C250.3,37.1,239.6,47.8,226.5,47.8z M226.5,6.8c-9.4,0-17.1,7.7-17.1,17.1c0,9.4,7.7,17.1,17.1,17.1c9.4,0,17.1-7.7,17.1-17.1
			C243.6,14.5,235.9,6.8,226.5,6.8z"/>
	</g>
</g>
</svg>
