<?xml version="1.0" encoding="utf-8"?>
<!-- Generator: Adobe Illustrator 19.0.0, SVG Export Plug-In . SVG Version: 6.00 Build 0)  -->
<svg version="1.1" id="Layer_1" xmlns="http://www.w3.org/2000/svg" xmlns:xlink="http://www.w3.org/1999/xlink" x="0px" y="0px"
	 viewBox="0 0 137 34" enable-background="new 0 0 137 34" xml:space="preserve">
<g id="XMLID_2_">
	<g id="XMLID_7_">
		<path id="XMLID_18_" fill="#FFFFFF" d="M1.8,24c1.7,1.8,4.1,3,6.7,3c3.2,0,5-1.6,5-3.9c0-2.5-1.8-3.2-4-4.3L6,17.3
			c-2.2-1-4.9-2.7-4.9-6.2c0-3.7,3.2-6.4,7.6-6.4c2.9,0,5.4,1.2,7.1,3l-1.6,2C12.8,8.3,11,7.4,8.7,7.4c-2.7,0-4.5,1.4-4.5,3.5
			c0,2.3,2.1,3.2,4,4l3.5,1.5c2.8,1.2,5,2.9,5,6.4c0,3.8-3.2,6.9-8.2,6.9c-3.4,0-6.3-1.4-8.4-3.6L1.8,24z"/>
		<path id="XMLID_16_" fill="#FFFFFF" d="M26.3,7.7H19V5.2h17.7v2.6h-7.3v21.5h-3.1V7.7z"/>
		<path id="XMLID_14_" fill="#FFFFFF" d="M39.7,5.2h13.9v2.6H42.8v7.6h9.1v2.6h-9.1v8.7h10.8v2.6H39.7V5.2z"/>
		<path id="XMLID_12_" fill="#FFFFFF" d="M64,7.7h-7.3V5.2h17.7v2.6H67v21.5H64V7.7z"/>
		<path id="XMLID_10_" fill="#FFFFFF" d="M77.4,5.2h3.1v10.1h11.2V5.2h3.1v24.1h-3.1V17.9H80.5v11.4h-3.1V5.2z"/>
		<path id="XMLID_8_" fill="#969696" d="M98.8,5.2h4.3v24h-4.3V5.2z"/>
	</g>
	<g id="XMLID_3_">
		<path id="XMLID_4_" fill="#969696" d="M118.5,29.7c-6.9,0-12.5-5.6-12.5-12.5c0-6.9,5.6-12.5,12.5-12.5S131,10.4,131,17.2
			C131,24.1,125.4,29.7,118.5,29.7z M118.5,8.3c-4.9,0-8.9,4-8.9,8.9c0,4.9,4,8.9,8.9,8.9c4.9,0,8.9-4,8.9-8.9
			C127.5,12.3,123.5,8.3,118.5,8.3z"/>
	</g>
</g>
</svg>
